<svg width="1024" height="1024" viewBox="0 0 680 680" xmlns="http://www.w3.org/2000/svg">
  <defs>
    <radialGradient id="bg-glow" cx="50%" cy="55%" r="50%">
      <stop offset="0%" stop-color="#1a0a00"/>
      <stop offset="100%" stop-color="#080408"/>
    </radialGradient>
    <radialGradient id="tube-glow" cx="50%" cy="60%" r="50%">
      <stop offset="0%" stop-color="#ff8c00" stop-opacity="0.9"/>
      <stop offset="60%" stop-color="#c04000" stop-opacity="0.5"/>
      <stop offset="100%" stop-color="#400000" stop-opacity="0"/>
    </radialGradient>
    <radialGradient id="tube-inner" cx="50%" cy="50%" r="50%">
      <stop offset="0%" stop-color="#ffcc66"/>
      <stop offset="50%" stop-color="#ff6600"/>
      <stop offset="100%" stop-color="#7a1a00"/>
    </radialGradient>
    <radialGradient id="filament-glow" cx="50%" cy="50%" r="50%">
      <stop offset="0%" stop-color="#ffffaa"/>
      <stop offset="100%" stop-color="#ff8800" stop-opacity="0"/>
    </radialGradient>
    <clipPath id="round-clip">
      <rect x="60" y="60" width="560" height="560" rx="120"/>
    </clipPath>
    <filter id="soft-blur">
      <feGaussianBlur stdDeviation="12"/>
    </filter>
    <filter id="tiny-blur">
      <feGaussianBlur stdDeviation="3"/>
    </filter>
  </defs>

  <rect x="60" y="60" width="560" height="560" rx="120" fill="url(#bg-glow)"/>

  <g clip-path="url(#round-clip)" opacity="0.06" stroke="#cc6600" stroke-width="0.5" fill="none">
    <line x1="60" y1="160" x2="620" y2="160"/>
    <line x1="60" y1="260" x2="620" y2="260"/>
    <line x1="60" y1="360" x2="620" y2="360"/>
    <line x1="60" y1="460" x2="620" y2="460"/>
    <line x1="160" y1="60" x2="160" y2="620"/>
    <line x1="260" y1="60" x2="260" y2="620"/>
    <line x1="380" y1="60" x2="380" y2="620"/>
    <line x1="480" y1="60" x2="480" y2="620"/>
  </g>

  <ellipse cx="340" cy="400" rx="170" ry="130" fill="url(#tube-glow)" filter="url(#soft-blur)" clip-path="url(#round-clip)"/>

  <rect x="148" y="168" width="90" height="300" rx="12" fill="#e8e0d0"/>
  <rect x="442" y="168" width="90" height="300" rx="12" fill="#e8e0d0"/>
  <path d="M148 420 Q148 530 340 530 Q532 530 532 420 L532 468 Q532 560 340 560 Q148 560 148 468 Z" fill="#e8e0d0"/>
  <path d="M238 420 Q238 480 340 480 Q442 480 442 420 L442 168 L442 218 Q442 460 340 460 Q238 460 238 218 Z" fill="url(#bg-glow)"/>

  <rect x="303" y="300" width="74" height="110" rx="8" fill="#1a0800" stroke="#7a3a00" stroke-width="1.5"/>
  <ellipse cx="340" cy="300" rx="37" ry="48" fill="#120808" stroke="#7a3a00" stroke-width="1.5"/>
  <ellipse cx="340" cy="312" rx="24" ry="32" fill="url(#tube-inner)" filter="url(#tiny-blur)" opacity="0.85"/>
  <ellipse cx="340" cy="318" rx="10" ry="14" fill="url(#filament-glow)"/>
  <line x1="340" y1="310" x2="330" y2="325" stroke="#ffffcc" stroke-width="1.2" opacity="0.9"/>
  <line x1="340" y1="310" x2="350" y2="325" stroke="#ffffcc" stroke-width="1.2" opacity="0.9"/>
  <line x1="330" y1="325" x2="340" y2="340" stroke="#ffffcc" stroke-width="1.2" opacity="0.9"/>
  <line x1="350" y1="325" x2="340" y2="340" stroke="#ffffcc" stroke-width="1.2" opacity="0.9"/>
  <rect x="321" y="410" width="8" height="18" rx="2" fill="#5a3a00"/>
  <rect x="333" y="410" width="8" height="18" rx="2" fill="#5a3a00"/>
  <rect x="345" y="410" width="8" height="18" rx="2" fill="#5a3a00"/>
  <rect x="357" y="410" width="8" height="18" rx="2" fill="#5a3a00"/>

  <text x="340" y="612" text-anchor="middle" font-family="'Helvetica Neue', Arial, sans-serif" font-weight="800" font-size="52" letter-spacing="18" fill="#cc5500">UMBRA</text>

  <rect x="60" y="60" width="560" height="560" rx="120" fill="none" stroke="#3a1800" stroke-width="2"/>
</svg>
